<svg height="512" viewBox="0 0 58 54" width="512" xmlns="http://www.w3.org/2000/svg"><g id="Page-1" fill="none" fill-rule="evenodd"><g id="019---Arrows" fill-rule="nonzero"><path id="Shape" d="m12 6h27v-3.87c-.0003054-.76678888.4378182-1.46624999 1.1278617-1.80062292.6900435-.33437293 1.5105144-.24478628 2.1121383.23062292l13.77 10.87c.4827037.3779486.7647173.9569355.7647173 1.57s-.2820136 1.1920514-.7647173 1.57l-13.77 10.87c-.6016239.4754092-1.4220948.5649958-2.1121383.2306229s-1.1281671-1.033834-1.1278617-1.8006229v-3.87h-37c-1.10320187-.0032948-1.9967052-.8967981-2-2v-10c.0032948-1.10320187.89679813-1.9967052 2-2z" fill="#26b99a"/><path id="Shape" d="m51 34h5c1.1032019.0032948 1.9967052.8967981 2 2v10c-.0032948 1.1032019-.8967981 1.9967052-2 2h-37v3.87c.0003054.7667889-.4378182 1.46625-1.1278617 1.8006229s-1.5105144.2447863-2.1121383-.2306229l-13.77-10.87c-.48270373-.3779486-.76471728-.9569355-.76471728-1.57s.28201355-1.1920514.76471728-1.57l13.77-10.87c.6016239-.4754092 1.4220948-.5649958 2.1121383-.2306229s1.1281671 1.033834 1.1278617 1.8006229v3.87z" fill="#ff5364"/><path id="Shape" d="m54 45h-3c-.5522847 0-1-.4477153-1-1s.4477153-1 1-1h2v-2c0-.5522847.4477153-1 1-1s1 .4477153 1 1v3c0 .5522847-.4477153 1-1 1z" fill="#df4d60"/><path id="Shape" d="m7 17h-3c-.55228475 0-1-.4477153-1-1v-3c0-.5522847.44771525-1 1-1s1 .4477153 1 1v2h2c.55228475 0 1 .4477153 1 1s-.44771525 1-1 1z" fill="#81ccb8"/></g></g></svg>